<svg version="1.1" viewBox="0.0 0.0 960.0 540.0" fill="none" stroke="none" stroke-linecap="square" stroke-miterlimit="10" xmlns:xlink="http://www.w3.org/1999/xlink" xmlns="http://www.w3.org/2000/svg"><clipPath id="p.0"><path d="m0 0l960.0 0l0 540.0l-960.0 0l0 -540.0z" clip-rule="nonzero"/></clipPath><g clip-path="url(#p.0)"><path fill="#22a6b7" fill-opacity="0.0" d="m0 0l960.0 0l0 540.0l-960.0 0z" fill-rule="evenodd"/><path fill="#22a6b7" fill-opacity="0.0" d="m7.874016E-5 21.37525l960.0 0l0 518.6142l-960.0 0z" fill-rule="evenodd"/><path fill="#22a6b7" d="m239.36687 144.93045q7.125 0 12.09375 2.015625q4.9843903 2.015625 9.73439 5.703125q1.1875 1.0625 2.25 1.0625q2.375 0 3.09375 -7.125l2.734375 0q-0.484375 8.4375 -0.484375 29.671875l-2.71875 0q-0.84375 -9.5 -3.09375 -14.953125q-2.25 -5.453125 -7.8281403 -9.140625q-5.578125 -3.546875 -11.03125 -3.546875q-12.34375 0 -17.328125 11.859375q-4.984375 11.859375 -4.984375 28.359375q0 16.484375 4.984375 28.359375q4.984375 11.859375 17.328125 11.859375q5.453125 0 11.03125 -3.5625q5.5781403 -3.4375 7.8281403 -9.25q2.25 -5.8125 3.09375 -16.484375l2.71875 0q0 22.1875 0.484375 30.84375l-2.734375 0q-0.359375 -3.796875 -1.015625 -5.390625q-0.640625 -1.609375 -1.828125 -1.609375q-0.953125 0 -2.5 0.953125q-5.3437653 3.796875 -10.20314 5.75q-4.859375 1.953125 -11.75 1.953125q-13.40625 0 -23.5 -5.09375q-10.078125 -5.109375 -15.65625 -14.78125q-5.578125 -9.671875 -5.578125 -23.078125q0 -13.046875 5.6875 -23.125q5.703125 -10.09375 15.90625 -15.671875q10.21875 -5.578125 23.265625 -5.578125zm81.38896 4.03125q-4.265625 0.25 -6.21875 0.96875q-1.953125 0.703125 -2.671875 2.71875q-0.71875 2.015625 -0.71875 6.515625l0 61.234375q0 3.328125 0.46875 4.875q0.484375 1.53125 1.671875 2.0625q1.1875 0.53125 3.921875 0.53125l3.90625 0q4.15625 0 9.015625 -4.140625q4.875 -4.15625 8.78125 -10.984375q3.921875 -6.828125 5.234375 -14.171875l2.71875 0q-0.359375 4.265625 -0.359375 10.90625q0 12.8125 0.84375 21.125q-8.078125 -0.359375 -27.171875 -0.359375q-27.765625 0 -41.53125 0.359375l0 -2.375q3.796875 -0.234375 5.515625 -0.9375q1.71875 -0.71875 2.3125 -2.734375q0.59375 -2.015625 0.59375 -6.53125l0 -58.859375q0 -4.5 -0.65625 -6.515625q-0.65625 -2.015625 -2.3125 -2.71875q-1.65625 -0.71875 -5.453125 -0.96875l0 -2.375q6.75 0.359375 21.109375 0.359375q13.65625 0 21.0 -0.359375l0 2.375zm73.1069 0q-3.796875 0.25 -5.53125 0.96875q-1.71875 0.703125 -2.3125 2.71875q-0.59375 2.015625 -0.59375 6.515625l0 58.859375q0 4.515625 0.65625 6.53125q0.65625 2.015625 2.3125 2.734375q1.671875 0.703125 5.46875 0.9375l0 2.375q-6.890625 -0.359375 -19.828125 -0.359375q-14.359375 0 -21.109375 0.359375l0 -2.375q3.796875 -0.234375 5.515625 -0.9375q1.71875 -0.71875 2.3125 -2.734375q0.59375 -2.015625 0.59375 -6.53125l0 -58.859375q0 -4.5 -0.65625 -6.515625q-0.65625 -2.015625 -2.3125 -2.71875q-1.65625 -0.71875 -5.453125 -0.96875l0 -2.375q6.75 0.359375 21.109375 0.359375q12.828125 0 19.828125 -0.359375l0 2.375zm87.331116 0q-3.6875 0.828125 -5.46875 2.5625q-1.78125 1.71875 -2.375 5.28125q-0.59375 3.546875 -0.59375 10.671875l0 63.125q-2.375 -0.234375 -3.90625 -0.234375q-1.3125 0 -4.390625 0.234375l-52.5625 -57.421875l0 34.171875q0 8.78125 0.703125 12.640625q0.71875 3.84375 3.140625 5.625q2.4375 1.78125 8.140625 2.609375l0 2.375q-4.875 -0.359375 -13.296875 -0.359375q-6.28125 0 -9.84375 0.359375l0 -2.375q3.671875 -0.828125 5.453125 -2.546875q1.78125 -1.71875 2.375 -5.28125q0.59375 -3.5625 0.59375 -10.6875l0 -50.546875q0 -4.5 -0.65625 -6.515625q-0.65625 -2.015625 -2.3125 -2.71875q-1.65625 -0.71875 -5.453125 -0.96875l0 -2.375q3.5625 0.359375 9.84375 0.359375q6.40625 0 10.921875 -0.359375l48.53125 51.265625l0 -28.0q0 -8.78125 -0.71875 -12.640625q-0.703125 -3.859375 -3.140625 -5.640625q-2.4375 -1.78125 -8.125 -2.609375l0 -2.375q4.859375 0.359375 13.28125 0.359375q6.296875 0 9.859375 -0.359375l0 2.375zm47.106262 0q-3.796875 0.25 -5.53125 0.96875q-1.71875 0.703125 -2.3125 2.71875q-0.59375 2.015625 -0.59375 6.515625l0 58.859375q0 4.515625 0.65625 6.53125q0.65625 2.015625 2.3125 2.734375q1.671875 0.703125 5.46875 0.9375l0 2.375q-6.890625 -0.359375 -19.828064 -0.359375q-14.359375 0 -21.109375 0.359375l0 -2.375q3.796875 -0.234375 5.515625 -0.9375q1.71875 -0.71875 2.3125 -2.734375q0.59375 -2.015625 0.59375 -6.53125l0 -58.859375q0 -4.5 -0.65625 -6.515625q-0.65625 -2.015625 -2.3125 -2.71875q-1.65625 -0.71875 -5.453125 -0.96875l0 -2.375q6.75 0.359375 21.109375 0.359375q12.828064 0 19.828064 -0.359375l0 2.375zm51.49121 -4.03125q7.125 0 12.09375 2.015625q4.984375 2.015625 9.734375 5.703125q1.1875 1.0625 2.25 1.0625q2.375 0 3.09375 -7.125l2.734375 0q-0.484375 8.4375 -0.484375 29.671875l-2.71875 0q-0.84375 -9.5 -3.09375 -14.953125q-2.25 -5.453125 -7.828125 -9.140625q-5.578125 -3.546875 -11.03125 -3.546875q-12.34375 0 -17.328125 11.859375q-4.984375 11.859375 -4.984375 28.359375q0 16.484375 4.984375 28.359375q4.984375 11.859375 17.328125 11.859375q5.453125 0 11.03125 -3.5625q5.578125 -3.4375 7.828125 -9.25q2.25 -5.8125 3.09375 -16.484375l2.71875 0q0 22.1875 0.484375 30.84375l-2.734375 0q-0.359375 -3.796875 -1.015625 -5.390625q-0.640625 -1.609375 -1.828125 -1.609375q-0.953125 0 -2.5 0.953125q-5.34375 3.796875 -10.203125 5.75q-4.859375 1.953125 -11.75 1.953125q-13.40625 0 -23.5 -5.09375q-10.078125 -5.109375 -15.65625 -14.78125q-5.578125 -9.671875 -5.578125 -23.078125q0 -13.046875 5.6875 -23.125q5.703125 -10.09375 15.90625 -15.671875q10.21875 -5.578125 23.265625 -5.578125zm111.888916 75.703125q1.546875 3.796875 3.375 5.640625q1.84375 1.84375 3.625 1.953125l0 2.375q-8.546875 -0.359375 -21.59375 -0.359375q-13.53125 0 -19.9375 0.359375l0 -2.375q4.515625 -0.234375 6.40625 -1.125q1.90625 -0.890625 1.90625 -3.140625q0 -2.140625 -1.421875 -5.703125l-7.0 -19.453125l-23.96875 0l-2.015625 5.34375q-3.921875 10.078125 -3.921875 15.421875q0 4.859375 2.71875 6.640625q2.734375 1.78125 8.078125 2.015625l0 2.375q-8.890625 -0.359375 -15.546875 -0.359375q-5.578125 0 -9.125 0.359375l0 -2.375q2.953125 -0.46875 5.5625 -3.671875q2.625 -3.203125 5.34375 -10.203125l26.34375 -67.765625q3.796875 0.25 6.296875 0.25q2.359375 0 6.15625 -0.25l28.71875 74.046875zm-35.46875 -24.203125l-10.8125 -29.671875l-11.390625 29.671875l22.203125 0zm84.705505 -47.46875q-4.265625 0.25 -6.21875 0.96875q-1.953125 0.703125 -2.671875 2.71875q-0.71875 2.015625 -0.71875 6.515625l0 61.234375q0 3.328125 0.46875 4.875q0.484375 1.53125 1.671875 2.0625q1.1875 0.53125 3.921875 0.53125l3.90625 0q4.15625 0 9.015625 -4.140625q4.875 -4.15625 8.78125 -10.984375q3.921875 -6.828125 5.234375 -14.171875l2.71875 0q-0.359375 4.265625 -0.359375 10.90625q0 12.8125 0.84375 21.125q-8.078125 -0.359375 -27.171875 -0.359375q-27.765625 0 -41.53125 0.359375l0 -2.375q3.796875 -0.234375 5.515625 -0.9375q1.71875 -0.71875 2.3125 -2.734375q0.59375 -2.015625 0.59375 -6.53125l0 -58.859375q0 -4.5 -0.65625 -6.515625q-0.65625 -2.015625 -2.3125 -2.71875q-1.65625 -0.71875 -5.453125 -0.96875l0 -2.375q6.75 0.359375 21.109375 0.359375q13.65625 0 21.0 -0.359375l0 2.375z" fill-rule="nonzero"/><path fill="#22a6b7" d="m57.819324 350.58667q11.624996 0.59375 19.156246 3.671875q7.546875 3.078125 10.984375 7.65625q3.4375 4.5625 3.4375 9.671875q0 11.625 -9.25 17.328125q-9.25 5.6875 -26.343746 5.6875q-3.4375 0 -5.8125 -0.125q-8.0625 -0.234375 -15.78125 -0.234375q-13.890627 0 -20.640625 0.359375l0 -2.375q3.796874 -0.234375 5.515624 -0.9375q1.71875 -0.71875 2.3125 -2.734375q0.59375 -2.015625 0.59375 -6.53125l0 -58.859375q0 -4.5 -0.65625 -6.515625q-0.65625 -2.015625 -2.3125 -2.71875q-1.65625 -0.71875 -5.453124 -0.96875l0 -2.375q6.749999 0.359375 20.40625 0.359375l13.640625 -0.109375q2.375 -0.125 5.453125 -0.125q15.671871 0 23.906246 5.046875q8.25 5.046875 8.25 13.578125q0 4.390625 -3.078125 8.84375q-3.078125 4.453125 -9.25 7.78125q-6.171875 3.3125 -15.078121 4.375l0 0.25zm-5.34375 -37.625q-2.71875 0 -4.09375 0.84375q-1.359375 0.828125 -1.84375 2.96875q-0.46875 2.125 -0.46875 6.390625l0 26.828125l3.203125 0q6.40625 0 8.953125 -5.28125q2.5625 -5.28125 2.5625 -14.0625q0 -9.015625 -1.96875 -13.34375q-1.953125 -4.34375 -6.34375 -4.34375zm1.3125 78.90625q12.703121 0 12.703121 -20.765625q0 -9.375 -4.515621 -14.234375q-4.515625 -4.859375 -14.234375 -4.859375l-1.671875 0l0 30.015625q0 4.265625 0.59375 6.296875q0.59375 2.015625 2.1875 2.78125q1.609375 0.765625 4.9375 0.765625zm84.252686 -78.90625q-3.796875 0.25 -5.53125 0.96875q-1.71875 0.703125 -2.3125 2.71875q-0.59375 2.015625 -0.59375 6.515625l0 58.859375q0 4.515625 0.65625 6.53125q0.65625 2.015625 2.3125 2.734375q1.671875 0.703125 5.46875 0.9375l0 2.375q-6.890625 -0.359375 -19.828125 -0.359375q-14.359375 0 -21.109375 0.359375l0 -2.375q3.796875 -0.234375 5.515625 -0.9375q1.71875 -0.71875 2.3125 -2.734375q0.59375 -2.015625 0.59375 -6.53125l0 -58.859375q0 -4.5 -0.65625 -6.515625q-0.65625 -2.015625 -2.3125 -2.71875q-1.65625 -0.71875 -5.453125 -0.96875l0 -2.375q6.75 0.359375 21.109375 0.359375q12.828125 0 19.828125 -0.359375l0 2.375zm51.49115 -4.03125q13.40625 0 23.484375 5.109375q10.09375 5.09375 15.671875 14.765625q5.578125 9.671875 5.578125 23.078125q0 13.0625 -5.703125 23.140625q-5.6875 10.078125 -15.890625 15.65625q-10.203125 5.578125 -23.265625 5.578125q-13.40625 0 -23.5 -5.09375q-10.078125 -5.109375 -15.65625 -14.78125q-5.578125 -9.671875 -5.578125 -23.078125q0 -13.046875 5.6875 -23.125q5.703125 -10.09375 15.90625 -15.671875q10.21875 -5.578125 23.265625 -5.578125zm-0.46875 2.140625q-5.828125 0 -10.28125 5.28125q-4.4375 5.28125 -6.8125 14.78125q-2.375 9.484375 -2.375 21.703125q0 12.34375 2.71875 21.71875q2.734375 9.375 7.359375 14.484375q4.640625 5.09375 10.21875 5.09375q5.8125 0 10.25 -5.28125q4.453125 -5.28125 6.828125 -14.765625q2.375 -9.5 2.375 -21.71875q0 -12.34375 -2.734375 -21.71875q-2.71875 -9.375 -7.359375 -14.46875q-4.625 -5.109375 -10.1875 -5.109375zm85.30052 -2.140625q6.765625 0 10.96875 1.25q4.21875 1.25 8.265625 3.5q1.296875 0.703125 2.296875 1.1875q1.015625 0.46875 1.734375 0.46875q1.0625 0 1.65625 -1.234375q0.59375 -1.25 0.953125 -3.984375l2.734375 0q-0.59375 8.546875 -0.59375 28.953125l-2.734375 0q-0.46875 -6.765625 -3.09375 -12.9375q-2.609375 -6.171875 -7.125 -10.078125q-4.5 -3.921875 -10.421875 -3.921875q-5.46875 0 -8.796875 2.90625q-3.3125 2.90625 -3.3125 8.125q0 4.046875 1.78125 7.015625q1.78125 2.953125 5.21875 5.75q3.4375 2.78125 11.265625 8.25q0.71875 0.34375 1.375 0.828125q0.65625 0.46875 1.25 0.9375q6.515625 4.515625 10.421875 8.015625q3.921875 3.5 6.359375 8.125q2.4375 4.625 2.4375 10.6875q0 7.703125 -4.34375 12.984375q-4.328125 5.28125 -11.6875 7.890625q-7.34375 2.609375 -16.25 2.609375q-7.234375 0 -12.046875 -1.1875q-4.796875 -1.1875 -8.953125 -3.203125q-2.609375 -1.65625 -4.03125 -1.65625q-1.078125 0 -1.671875 1.25q-0.578125 1.234375 -0.9375 3.96875l-2.734375 0q0.46875 -8.0625 0.46875 -34.40625l2.734375 0q0.828125 14.125 5.921875 22.90625q5.109375 8.765625 15.671875 8.765625q6.53125 0 10.390625 -3.078125q3.859375 -3.078125 3.859375 -8.546875q0 -6.765625 -4.21875 -11.5625q-4.21875 -4.8125 -13.109375 -10.734375q-7.125 -4.75 -11.40625 -8.3125q-4.265625 -3.5625 -7.0 -8.25q-2.71875 -4.6875 -2.71875 -10.859375q0 -7.46875 4.03125 -12.515625q4.03125 -5.046875 10.734375 -7.46875q6.71875 -2.4375 14.65625 -2.4375zm117.12686 1.65625q-0.84375 13.171875 -0.84375 23.5q0 5.453125 0.359375 8.546875l-2.71875 0q-3.921875 -15.546875 -10.09375 -22.421875q-6.171875 -6.890625 -13.296875 -6.890625l-0.109375 0l0 67.875q0 4.984375 1.0 7.234375q1.015625 2.25 3.6875 3.03125q2.671875 0.765625 8.484375 0.765625l0 2.375q-16.734375 -0.359375 -25.984375 -0.359375q-8.421875 0 -24.453125 0.359375l0 -2.375q5.8125 0 8.484375 -0.765625q2.671875 -0.78125 3.671875 -3.03125q1.015625 -2.25 1.015625 -7.234375l0 -67.875l-0.109375 0q-7.25 0 -13.359375 6.828125q-6.109375 6.8125 -10.015625 22.484375l-2.734375 0q0.359375 -3.09375 0.359375 -8.546875q0 -10.328125 -0.828125 -23.5q11.265625 0.359375 38.796875 0.359375q27.40625 0 38.6875 -0.359375zm70.946075 74.046875q1.546875 3.796875 3.375 5.640625q1.84375 1.84375 3.625 1.953125l0 2.375q-8.546875 -0.359375 -21.59375 -0.359375q-13.53125 0 -19.9375 0.359375l0 -2.375q4.515625 -0.234375 6.40625 -1.125q1.90625 -0.890625 1.90625 -3.140625q0 -2.140625 -1.421875 -5.703125l-7.0 -19.453125l-23.96875 0l-2.015625 5.34375q-3.921875 10.078125 -3.921875 15.421875q0 4.859375 2.71875 6.640625q2.734375 1.78125 8.078125 2.015625l0 2.375q-8.890625 -0.359375 -15.546875 -0.359375q-5.578125 0 -9.125 0.359375l0 -2.375q2.953125 -0.46875 5.5625 -3.671875q2.625 -3.203125 5.34375 -10.203125l26.34375 -67.765625q3.796875 0.25 6.296875 0.25q2.359375 0 6.15625 -0.25l28.71875 74.046875zm-35.46875 -24.203125l-10.8125 -29.671875l-11.390625 29.671875l22.203125 0zm112.36667 -49.84375q-0.84375 13.171875 -0.84375 23.5q0 5.453125 0.359375 8.546875l-2.71875 0q-3.921875 -15.546875 -10.09375 -22.421875q-6.171875 -6.890625 -13.296875 -6.890625l-0.109375 0l0 67.875q0 4.984375 1.0 7.234375q1.015625 2.25 3.6875 3.03125q2.671875 0.765625 8.484375 0.765625l0 2.375q-16.734314 -0.359375 -25.984314 -0.359375q-8.421875 0 -24.453125 0.359375l0 -2.375q5.8125 0 8.484375 -0.765625q2.671875 -0.78125 3.671875 -3.03125q1.015625 -2.25 1.015625 -7.234375l0 -67.875l-0.109375 0q-7.25 0 -13.359375 6.828125q-6.109375 6.8125 -10.015625 22.484375l-2.734375 0q0.359375 -3.09375 0.359375 -8.546875q0 -10.328125 -0.828125 -23.5q11.265625 0.359375 38.796875 0.359375q27.406189 0 38.68744 -0.359375zm46.98755 2.375q-3.796875 0.25 -5.53125 0.96875q-1.71875 0.703125 -2.3125 2.71875q-0.59375 2.015625 -0.59375 6.515625l0 58.859375q0 4.515625 0.65625 6.53125q0.65625 2.015625 2.3125 2.734375q1.671875 0.703125 5.46875 0.9375l0 2.375q-6.890625 -0.359375 -19.828125 -0.359375q-14.359375 0 -21.109375 0.359375l0 -2.375q3.796875 -0.234375 5.515625 -0.9375q1.71875 -0.71875 2.3125 -2.734375q0.59375 -2.015625 0.59375 -6.53125l0 -58.859375q0 -4.5 -0.65625 -6.515625q-0.65625 -2.015625 -2.3125 -2.71875q-1.65625 -0.71875 -5.453125 -0.96875l0 -2.375q6.75 0.359375 21.109375 0.359375q12.828125 0 19.828125 -0.359375l0 2.375zm39.143677 -4.03125q6.765625 0 10.96875 1.25q4.21875 1.25 8.265625 3.5q1.296875 0.703125 2.296875 1.1875q1.015625 0.46875 1.734375 0.46875q1.0625 0 1.65625 -1.234375q0.59375 -1.25 0.953125 -3.984375l2.734375 0q-0.59375 8.546875 -0.59375 28.953125l-2.734375 0q-0.46875 -6.765625 -3.09375 -12.9375q-2.609375 -6.171875 -7.125 -10.078125q-4.5 -3.921875 -10.421875 -3.921875q-5.46875 0 -8.796875 2.90625q-3.3125 2.90625 -3.3125 8.125q0 4.046875 1.78125 7.015625q1.78125 2.953125 5.21875 5.75q3.4375 2.78125 11.265625 8.25q0.71875 0.34375 1.375 0.828125q0.65625 0.46875 1.25 0.9375q6.515625 4.515625 10.421875 8.015625q3.921875 3.5 6.359375 8.125q2.4375 4.625 2.4375 10.6875q0 7.703125 -4.34375 12.984375q-4.328125 5.28125 -11.6875 7.890625q-7.34375 2.609375 -16.25 2.609375q-7.234375 0 -12.046875 -1.1875q-4.796875 -1.1875 -8.953125 -3.203125q-2.609375 -1.65625 -4.03125 -1.65625q-1.078125 0 -1.671875 1.25q-0.578125 1.234375 -0.9375 3.96875l-2.734375 0q0.46875 -8.0625 0.46875 -34.40625l2.734375 0q0.828125 14.125 5.921875 22.90625q5.109375 8.765625 15.671875 8.765625q6.53125 0 10.390625 -3.078125q3.859375 -3.078125 3.859375 -8.546875q0 -6.765625 -4.21875 -11.5625q-4.21875 -4.8125 -13.109375 -10.734375q-7.125 -4.75 -11.40625 -8.3125q-4.265625 -3.5625 -7.0 -8.25q-2.71875 -4.6875 -2.71875 -10.859375q0 -7.46875 4.03125 -12.515625q4.03125 -5.046875 10.734375 -7.46875q6.71875 -2.4375 14.65625 -2.4375zm117.12683 1.65625q-0.84375 13.171875 -0.84375 23.5q0 5.453125 0.359375 8.546875l-2.71875 0q-3.921875 -15.546875 -10.09375 -22.421875q-6.171875 -6.890625 -13.296875 -6.890625l-0.109375 0l0 67.875q0 4.984375 1.0 7.234375q1.015625 2.25 3.6875 3.03125q2.671875 0.765625 8.484375 0.765625l0 2.375q-16.734375 -0.359375 -25.984375 -0.359375q-8.421875 0 -24.453125 0.359375l0 -2.375q5.8125 0 8.484375 -0.765625q2.671875 -0.78125 3.671875 -3.03125q1.015625 -2.25 1.015625 -7.234375l0 -67.875l-0.109375 0q-7.25 0 -13.359375 6.828125q-6.109375 6.8125 -10.015625 22.484375l-2.734375 0q0.359375 -3.09375 0.359375 -8.546875q0 -10.328125 -0.828125 -23.5q11.265625 0.359375 38.796875 0.359375q27.40625 0 38.6875 -0.359375zm46.98755 2.375q-3.796875 0.25 -5.53125 0.96875q-1.71875 0.703125 -2.3125 2.71875q-0.59375 2.015625 -0.59375 6.515625l0 58.859375q0 4.515625 0.65625 6.53125q0.65625 2.015625 2.3125 2.734375q1.671875 0.703125 5.46875 0.9375l0 2.375q-6.890625 -0.359375 -19.828125 -0.359375q-14.359375 0 -21.109375 0.359375l0 -2.375q3.796875 -0.234375 5.515625 -0.9375q1.71875 -0.71875 2.3125 -2.734375q0.59375 -2.015625 0.59375 -6.53125l0 -58.859375q0 -4.5 -0.65625 -6.515625q-0.65625 -2.015625 -2.3125 -2.71875q-1.65625 -0.71875 -5.453125 -0.96875l0 -2.375q6.75 0.359375 21.109375 0.359375q12.828125 0 19.828125 -0.359375l0 2.375zm51.49109 -4.03125q7.125 0 12.09375 2.015625q4.984375 2.015625 9.734375 5.703125q1.1875 1.0625 2.25 1.0625q2.375 0 3.09375 -7.125l2.734375 0q-0.484375 8.4375 -0.484375 29.671875l-2.71875 0q-0.84375 -9.5 -3.09375 -14.953125q-2.25 -5.453125 -7.828125 -9.140625q-5.578125 -3.546875 -11.03125 -3.546875q-12.34375 0 -17.328125 11.859375q-4.984375 11.859375 -4.984375 28.359375q0 16.484375 4.984375 28.359375q4.984375 11.859375 17.328125 11.859375q5.453125 0 11.03125 -3.5625q5.578125 -3.4375 7.828125 -9.25q2.25 -5.8125 3.09375 -16.484375l2.71875 0q0 22.1875 0.484375 30.84375l-2.734375 0q-0.359375 -3.796875 -1.015625 -5.390625q-0.640625 -1.609375 -1.828125 -1.609375q-0.953125 0 -2.5 0.953125q-5.34375 3.796875 -10.203125 5.75q-4.859375 1.953125 -11.75 1.953125q-13.40625 0 -23.5 -5.09375q-10.078125 -5.109375 -15.65625 -14.78125q-5.578125 -9.671875 -5.578125 -23.078125q0 -13.046875 5.6875 -23.125q5.703125 -10.09375 15.90625 -15.671875q10.21875 -5.578125 23.265625 -5.578125z" fill-rule="nonzero"/><path fill="#22a6b7" d="m912.8509 308.93042q6.765625 0 10.96875 1.25q4.21875 1.25 8.265625 3.5q1.296875 0.703125 2.296875 1.1875q1.015625 0.46875 1.734375 0.46875q1.0625 0 1.65625 -1.234375q0.59375 -1.25 0.953125 -3.984375l2.734375 0q-0.59375 8.546875 -0.59375 28.953125l-2.734375 0q-0.46875 -6.765625 -3.09375 -12.9375q-2.609375 -6.171875 -7.125 -10.078125q-4.5 -3.921875 -10.421875 -3.921875q-5.46875 0 -8.796875 2.90625q-3.3125 2.90625 -3.3125 8.125q0 4.046875 1.78125 7.015625q1.78125 2.953125 5.21875 5.75q3.4375 2.78125 11.265625 8.25q0.71875 0.34375 1.375 0.828125q0.65625 0.46875 1.25 0.9375q6.515625 4.515625 10.421875 8.015625q3.921875 3.5 6.359375 8.125q2.4375 4.625 2.4375 10.6875q0 7.703125 -4.34375 12.984375q-4.328125 5.28125 -11.6875 7.890625q-7.34375 2.609375 -16.25 2.609375q-7.234375 0 -12.046875 -1.1875q-4.796875 -1.1875 -8.953125 -3.203125q-2.609375 -1.65625 -4.03125 -1.65625q-1.078125 0 -1.671875 1.25q-0.578125 1.234375 -0.9375 3.96875l-2.734375 0q0.46875 -8.0625 0.46875 -34.40625l2.734375 0q0.828125 14.125 5.921875 22.90625q5.109375 8.765625 15.671875 8.765625q6.53125 0 10.390625 -3.078125q3.859375 -3.078125 3.859375 -8.546875q0 -6.765625 -4.21875 -11.5625q-4.21875 -4.8125 -13.109375 -10.734375q-7.125 -4.75 -11.40625 -8.3125q-4.265625 -3.5625 -7.0 -8.25q-2.71875 -4.6875 -2.71875 -10.859375q0 -7.46875 4.03125 -12.515625q4.03125 -5.046875 10.734375 -7.46875q6.71875 -2.4375 14.65625 -2.4375z" fill-rule="nonzero"/></g></svg>
