<?xml version="1.0" encoding="UTF-8" standalone="no"?>
<svg
   xmlns:dc="http://purl.org/dc/elements/1.1/"
   xmlns:cc="http://creativecommons.org/ns#"
   xmlns:rdf="http://www.w3.org/1999/02/22-rdf-syntax-ns#"
   xmlns:svg="http://www.w3.org/2000/svg"
   xmlns="http://www.w3.org/2000/svg"
   xmlns:sodipodi="http://sodipodi.sourceforge.net/DTD/sodipodi-0.dtd"
   xmlns:inkscape="http://www.inkscape.org/namespaces/inkscape"
   version="1.1"
   viewBox="0 0 960 416"
   stroke-miterlimit="10"
   id="svg15"
   sodipodi:docname="logo.svg"
   width="960"
   height="416"
   style="fill:none;stroke:none;stroke-linecap:square;stroke-miterlimit:10"
   inkscape:version="0.92.4 (5da689c313, 2019-01-14)">
  <metadata
     id="metadata21">
    <rdf:RDF>
      <cc:Work
         rdf:about="">
        <dc:format>image/svg+xml</dc:format>
        <dc:type
           rdf:resource="http://purl.org/dc/dcmitype/StillImage" />
        <dc:title></dc:title>
      </cc:Work>
    </rdf:RDF>
  </metadata>
  <defs
     id="defs19" />
  <sodipodi:namedview
     pagecolor="#ffffff"
     bordercolor="#666666"
     borderopacity="1"
     objecttolerance="10"
     gridtolerance="10"
     guidetolerance="10"
     inkscape:pageopacity="0"
     inkscape:pageshadow="2"
     inkscape:window-width="1920"
     inkscape:window-height="1001"
     id="namedview17"
     showgrid="false"
     fit-margin-top="0"
     fit-margin-left="0"
     fit-margin-right="0"
     fit-margin-bottom="0"
     inkscape:zoom="0.39333333"
     inkscape:cx="480"
     inkscape:cy="300"
     inkscape:window-x="-9"
     inkscape:window-y="-9"
     inkscape:window-maximized="1"
     inkscape:current-layer="svg15" />
  <clipPath
     id="p.0">
    <path
       d="M 0,0 H 960 V 600 H 0 Z"
       id="path2"
       inkscape:connector-curvature="0"
       style="clip-rule:nonzero" />
  </clipPath>
  <g
     clip-path="url(#p.0)"
     id="g13"
     transform="translate(0,-77.220339)">
    <path
       d="M 0,0 H 960 V 600 H 0 Z"
       id="path5"
       inkscape:connector-curvature="0"
       style="fill:#000000;fill-opacity:0;fill-rule:evenodd" />
    <path
       d="M 9.342169,5.3127255 968.74372,42.541073 950.66498,617.75367 -8.736566,580.52534 Z"
       id="path7"
       inkscape:connector-curvature="0"
       style="fill:#000000;fill-opacity:0;fill-rule:evenodd" />
    <path
       d="m 310.42758,178.28276 -36.20715,-1.40497 0.7304,-23.23916 q 0.25623,-8.15244 -0.15002,-9.15332 -0.40625,-1.00087 -1.71774,-1.05178 -1.62378,-0.063 -2.19882,1.32199 -0.57502,1.385 -0.8342,9.63115 l -1.6915,53.81864 q -0.24741,7.87132 0.22562,9.23443 0.48864,1.36373 1.90945,1.41886 1.31152,0.0509 1.90021,-1.27103 0.58914,-1.33752 0.86944,-10.25525 l 0.55271,-17.58554 36.20712,1.40497 -0.23758,7.55897 q -0.5802,18.46015 -3.63464,26.61347 -3.03882,8.15393 -12.75727,13.96896 -9.70285,5.81566 -23.34884,5.28614 -14.03632,-0.54465 -23.31641,-6.18999 -9.2801,-5.64533 -12.04873,-15.04099 -2.75303,-9.39506 -2.20227,-26.91813 l 1.06417,-33.85921 q 0.40006,-12.72842 1.5333,-19.43953 1.14934,-6.72612 6.06627,-12.96204 4.93306,-6.25092 13.2595,-9.55555 8.32694,-3.32025 18.77222,-2.91494 14.16119,0.54951 23.46075,6.57087 9.31516,6.02197 12.03125,14.60249 2.73169,8.58113 2.20502,25.33893 z m 42.70422,-55.04181 -2.91327,92.69112 18.32996,0.71127 -0.92035,29.28322 -54.53708,-2.11624 3.83362,-121.97434 z m 55.74185,2.16299 -3.83361,121.97434 -36.20713,-1.40498 3.83362,-121.97432 z m 79.36173,3.07953 -3.83362,121.97434 -31.71051,-1.23049 -11.6604,-56.24443 1.29321,55.84214 -31.27334,-1.21352 3.83362,-121.97433 30.44583,1.18141 12.94076,55.79373 -1.3089,-55.34237 z m 42.21133,1.63796 -3.83362,121.97433 -36.20715,-1.40497 3.83362,-121.97433 z m 80.65765,59.8287 -36.20709,-1.40497 0.73041,-23.23915 q 0.25622,-8.15245 -0.15003,-9.15333 -0.40625,-1.00087 -1.71777,-1.05176 -1.62378,-0.063 -2.19879,1.32198 -0.57507,1.38499 -0.83423,9.63114 l -1.69147,53.81864 q -0.24743,7.87132 0.22559,9.23445 0.48865,1.36372 1.90948,1.41885 1.31147,0.0509 1.90015,-1.27102 0.58917,-1.33754 0.86945,-10.25525 l 0.55273,-17.58556 36.20715,1.40499 -0.23761,7.55897 q -0.5802,18.46013 -3.63464,26.61345 -3.03882,8.15393 -12.75726,13.96898 -9.70288,5.81564 -23.34882,5.28613 -14.03631,-0.54466 -23.31647,-6.18998 -9.28009,-5.64533 -12.0487,-15.041 -2.75299,-9.39507 -2.20227,-26.91814 l 1.06421,-33.85919 q 0.40002,-12.72844 1.53326,-19.43955 1.14935,-6.72612 6.06629,-12.96203 4.93304,-6.25092 13.25952,-9.55556 8.3269,-3.32024 18.77215,-2.91493 14.16126,0.54951 23.46082,6.57087 9.31512,6.02198 12.03125,14.6025 2.73169,8.58111 2.20495,25.33893 z m 64.18805,-54.20814 14.30896,122.67833 -37.19073,-1.44315 -0.84406,-20.89218 -5.18359,-0.20116 -2.45038,20.76436 -37.45618,-1.45343 19.94654,-121.34909 z m -24.34094,73.65845 q -1.39142,-16.41004 0.2608,-45.6023 -2.60003,33.48686 -3.86749,45.46234 z m 77.27496,-71.60442 -2.91321,92.69112 18.32996,0.71128 -0.92041,29.28321 -54.53705,-2.11624 3.83362,-121.97433 z"
       id="path9"
       inkscape:connector-curvature="0"
       style="fill:#22a6b7;fill-rule:nonzero" />
    <path
       d="m 48.828224,313.58487 33.10009,1.28442 q 14.69207,0.5701 22.671436,3.33472 7.99548,2.74957 12.83074,10.55231 4.83574,7.78711 4.33409,23.74841 -0.35293,11.22913 -4.36157,15.92096 -3.99303,4.69247 -5.20782,4.05112 2.44598,-0.23346 6.55545,6.29019 4.12509,6.5242 3.74026,18.76849 l -0.33722,10.72937 q -0.39073,12.4317 -3.70343,18.85495 -3.29661,6.40827 -10.08492,8.52164 -6.7883,2.11337 -25.477361,1.38815 l -37.89336,-1.4704 z m 35.390823,27.37723 -1.822365,20.67926 q 0.05243,-1.17072 1.176582,-1.12708 2.638642,0.10239 3.26532,-0.93661 0.626686,-1.03897 0.925621,-10.55017 0.149712,-4.7634 -0.402855,-6.08268 -0.552558,-1.3193 -1.324874,-1.61508 -0.756218,-0.31082 -1.817429,-0.36764 z m -1.377838,43.83893 -0.821701,26.14404 q 2.000458,0.0151 2.918884,-0.8562 0.934532,-0.88632 1.11615,-6.66486 l 0.339676,-10.80746 q 0.193886,-6.16901 -0.486618,-6.89905 -0.680023,-0.7457 -3.066391,-0.91647 z m 83.123571,-66.67081 -3.83362,121.97433 -36.20711,-1.40497 3.83361,-121.97433 z m 78.71019,74.04513 q -0.55419,17.63239 -1.68761,25.34424 -1.1178,7.71246 -6.13627,14.19461 -5.00287,6.48279 -13.15464,9.70038 -8.15126,3.20197 -18.59652,2.79663 -9.91442,-0.3847 -17.8824,-4.00888 -7.9675,-3.6398 -12.75168,-10.58054 -4.7842,-6.9407 -5.46535,-14.61352 -0.68066,-7.68842 -0.11224,-25.77371 l 0.62338,-19.83451 q 0.55418,-17.63241 1.672,-25.34484 1.11781,-7.71247 6.13629,-14.19465 5.01848,-6.48214 13.16974,-9.68411 8.15176,-3.21759 18.59701,-2.81229 9.91442,0.38474 17.8663,4.02393 7.96799,3.62418 12.75219,10.56488 4.7998,6.94135 5.48045,14.62976 0.68066,7.68842 0.11275,25.75812 z m -35.02602,-39.48156 q 0.2361,-7.51212 -0.13794,-8.54303 -0.37355,-1.04651 -1.09176,-1.07438 -0.74944,-0.0291 -1.32044,0.7306 -0.55539,0.76028 -0.80671,8.75656 l -1.70034,54.09976 q -0.30139,9.58926 0.039,10.69705 0.35598,1.10837 1.19909,1.14108 0.8431,0.0327 1.34057,-1.37091 0.49794,-1.41925 0.80522,-11.19595 z m 111.01953,12.65799 -34.06811,-1.32196 0.36569,-11.6352 q 0.16052,-5.10699 -0.19604,-5.69937 -0.35657,-0.59241 -1.21531,-0.62573 -1.03045,-0.04 -1.78451,1.07223 -0.75354,1.09662 -0.86792,4.73554 -0.15805,5.0289 1.00323,7.37256 1.04032,2.21389 7.16928,6.15762 20.31687,13.09451 25.66385,21.52692 5.48011,8.67215 4.91513,26.64813 -0.41085,13.07202 -3.91485,19.61295 -3.48837,6.54153 -12.71222,10.54626 -9.22339,3.98914 -20.93332,3.53473 -12.8497,-0.4986 -22.09082,-5.89224 -9.24063,-5.40924 -11.94414,-13.39508 -2.68741,-8.00083 -2.26085,-21.57264 l 0.33428,-10.63565 34.0681,1.32196 -0.53897,17.14826 q -0.1767,5.62237 0.28277,6.42202 0.47507,0.8003 1.81781,0.85239 1.31152,0.0509 2.13193,-1.18384 0.83655,-1.24975 0.95532,-5.02923 0.28568,-9.08951 -1.65726,-11.43225 -2.50195,-2.95862 -13.1752,-10.5344 -11.22156,-8.03491 -15.08758,-11.85955 -3.86603,-3.82468 -6.2995,-10.45527 -2.43297,-6.64621 -2.12421,-16.46975 0.44324,-14.10279 4.48644,-20.88861 4.04368,-6.80146 12.50093,-10.28864 8.47333,-3.50223 19.871,-3.05993 12.41254,0.48162 21.33716,5.00296 8.94024,4.52194 11.79379,11.21572 2.86914,6.69443 2.41412,21.17203 z m 73.91748,-38.35022 -0.92038,29.28323 -17.87716,-0.69373 -2.91324,92.69113 -36.22275,-1.40557 2.91324,-92.69113 -17.8147,-0.69126 0.92035,-29.28323 z m 58.47724,2.26913 14.30896,122.67835 -37.19077,-1.44315 -0.84405,-20.89218 -5.1836,-0.20114 -2.45031,20.76434 -37.45621,-1.45343 19.9465,-121.34909 z m -24.34098,73.65848 q -1.39138,-16.41006 0.26084,-45.60232 -2.60007,33.48687 -3.8675,45.46237 z m 107.83008,-70.41879 -0.92035,29.28323 -17.87713,-0.69372 -2.91327,92.69113 -36.22272,-1.40558 2.91324,-92.6911 -17.8147,-0.69128 0.92035,-29.28321 z m 36.99341,1.43549 -3.83361,121.97433 -36.2071,-1.40497 3.83362,-121.97433 z m 74.633,44.11453 -34.06812,-1.32196 0.36567,-11.6352 q 0.16052,-5.10699 -0.19605,-5.6994 -0.35657,-0.59237 -1.21527,-0.6257 -1.03046,-0.04 -1.78455,1.07224 -0.75354,1.09661 -0.86792,4.73553 -0.15802,5.0289 1.00324,7.37256 1.04034,2.2139 7.16931,6.15762 20.31683,13.09452 25.66382,21.52692 5.4801,8.67215 4.91516,26.64813 -0.41089,13.07202 -3.91486,19.61295 -3.4884,6.54153 -12.71221,10.54626 -9.22339,3.98914 -20.93335,3.53473 -12.84967,-0.49863 -22.09082,-5.89224 -9.24061,-5.40924 -11.94416,-13.39508 -2.68738,-8.00083 -2.2608,-21.57263 l 0.33423,-10.63566 34.06811,1.32197 -0.53894,17.14825 q -0.17669,5.62237 0.28278,6.42203 0.47503,0.80029 1.81781,0.85238 1.31152,0.0509 2.1319,-1.18383 0.83654,-1.24976 0.95532,-5.02927 0.2857,-9.08951 -1.65723,-11.43222 -2.50195,-2.95862 -13.17523,-10.53439 -11.22156,-8.03492 -15.08759,-11.85956 -3.86602,-3.82468 -6.2995,-10.45526 -2.43292,-6.64621 -2.1242,-16.46976 0.44323,-14.10278 4.48645,-20.88861 4.04364,-6.80145 12.50091,-10.28867 8.47333,-3.50219 19.87104,-3.05993 12.41253,0.48166 21.33715,5.00299 8.94025,4.52194 11.79377,11.21573 2.86914,6.69439 2.41412,21.17203 z m 73.91748,-38.35022 -0.92041,29.2832 -17.87714,-0.69369 -2.91327,92.69113 -36.22271,-1.40558 2.91321,-92.69113 -17.8147,-0.69129 0.92035,-29.2832 z m 36.99335,1.43548 -3.83362,121.97434 -36.20709,-1.40497 3.83361,-121.97433 z m 80.65777,59.82871 -36.20715,-1.40497 0.73041,-23.23917 q 0.25622,-8.15243 -0.15003,-9.15332 -0.40625,-1.00088 -1.71777,-1.05175 -1.62378,-0.063 -2.19879,1.32199 -0.57501,1.38498 -0.83417,9.63113 l -1.69153,53.81864 q -0.24737,7.87133 0.22565,9.23443 0.48865,1.36374 1.90942,1.41886 1.31153,0.0509 1.90021,-1.27103 0.58917,-1.33753 0.86945,-10.25525 l 0.55267,-17.58554 36.20715,1.40497 -0.23761,7.55899 q -0.58014,18.46011 -3.63458,26.61346 -3.03882,8.1539 -12.75732,13.96897 -9.70282,5.81564 -23.34882,5.28613 -14.03632,-0.54468 -23.31641,-6.19 -9.28009,-5.64533 -12.04876,-15.04099 -2.75299,-9.39505 -2.20227,-26.91812 l 1.06421,-33.85922 q 0.40002,-12.72842 1.53326,-19.43955 1.14935,-6.7261 6.06628,-12.962 4.93305,-6.25095 13.25953,-9.55557 8.32696,-3.32026 18.77221,-2.91492 14.1612,0.5495 23.46076,6.57086 9.31518,6.02197 12.03125,14.60248 2.73169,8.58114 2.20501,25.33893 z m 75.11932,-12.56549 -34.06811,-1.32196 0.36572,-11.6352 q 0.16052,-5.10699 -0.19604,-5.69937 -0.35657,-0.5924 -1.21528,-0.62573 -1.03051,-0.04 -1.78454,1.07224 -0.75354,1.09661 -0.86792,4.73553 -0.15808,5.0289 1.00323,7.37256 1.04029,2.2139 7.16925,6.15762 20.3169,13.09452 25.66388,21.52692 5.48011,8.67215 4.9151,26.64813 -0.41082,13.07202 -3.91479,19.61295 -3.4884,6.54153 -12.71228,10.54626 -9.22339,3.98914 -20.93329,3.53473 -12.84973,-0.49859 -22.09082,-5.89224 -9.24066,-5.40924 -11.94415,-13.39508 -2.68738,-8.00083 -2.26087,-21.57263 l 0.33429,-10.63566 34.06812,1.32197 -0.53894,17.14825 q -0.17676,5.62237 0.28271,6.42203 0.4751,0.80029 1.81781,0.85238 1.31153,0.0509 2.13196,-1.18383 0.83655,-1.24976 0.95532,-5.02924 0.28571,-9.08951 -1.65729,-11.43225 -2.50195,-2.95862 -13.17517,-10.53439 -11.22155,-8.03492 -15.08758,-11.85956 -3.86603,-3.82468 -6.2995,-10.45526 -2.43298,-6.64621 -2.12421,-16.46976 0.44324,-14.10278 4.48645,-20.88861 4.04364,-6.80145 12.50092,-10.28864 8.47333,-3.50222 19.87097,-3.05993 12.41254,0.48163 21.33716,5.00296 8.94025,4.52194 11.79382,11.21573 2.86914,6.69442 2.41413,21.17202 z"
       id="path11"
       inkscape:connector-curvature="0"
       style="fill:#22a6b7;fill-rule:nonzero" />
  </g>
</svg>
